<svg width="192" height="192" fill="none" xmlns="http://www.w3.org/2000/svg"><g clip-path="url(#a)"><path d="M0 192v-41.242L150.758 0H192L0 192Z" fill="url(#b)"/><path opacity=".3" d="M137.266 33.705a187.42 187.42 0 0 0-10.61-9.603L87.622 63.136c-2.88 5.57-4.85 9.89-5.041 10.226l-1.393 3.025 16.18 16.18 2.833-.96c.048 0 .096-.048.144-.048l46.86-46.86c-2.545-3.313-6.05-7.202-9.939-10.994ZM92.76 99.145l.96-2.833-16.18-16.18-3.025 1.392c-.336.144-4.657 2.113-10.227 5.041l-39.13 39.13c2.929 3.649 6.482 7.634 9.65 10.707 2.93 2.881 7.25 6.722 11.092 9.746l46.86-46.86v-.143Z" fill="#000"/><path d="M81.86 27.175c-1.056.048-2.352.912-3.408 5.617-.673 3.121-.72 8.114-.144 15.364.96 11.619 5.953 23.766 5.953 23.766l7.442-.192 8.498-38.938c.048.048-16.756-5.281-18.34-5.617Z" fill="url(#c)"/><path d="M81.86 27.175c-1.056.048-2.352.912-3.408 5.617-.673 3.121-.72 8.114-.144 15.364.96 11.619 5.953 23.766 5.953 23.766l7.442-.192 8.498-38.938c.048.048-16.756-5.281-18.34-5.617Z" fill="url(#d)"/><path d="m91.943 72.018-7.778.192c-.144-.336-.096-.192-.192-.48s-.24-.624-.384-.96a98.541 98.541 0 0 1-1.248-3.601c-1.249-3.745-2.353-7.682-3.121-11.571a61.528 61.528 0 0 1-1.056-7.346c-.577-7.25-.529-12.291.144-15.46.912-4.08 2.064-5.665 3.6-5.761 5.234 1.44 10.42 3.12 15.556 4.753.769.24 1.44.432 2.065.672l1.008.336-8.594 39.226Zm-7.49-.288 7.106-.144 8.402-38.554c-1.92-.624-1.056-.336-2.64-.816-2.161-.672-4.322-1.344-6.338-1.968-2.305-.72-4.561-1.44-6.866-2.113a77.747 77.747 0 0 0-1.68-.48c-.865-.24-.865-.144-1.68.336-1.25 1.344-1.633 3.169-2.017 4.897-.672 3.121-.72 8.114-.144 15.316a60.8 60.8 0 0 0 1.056 7.298c.768 3.889 1.872 7.778 3.12 11.523.433 1.296.865 2.496 1.249 3.553.144.384.288.672.384.96l.048.192Z" fill="#FFA7A9"/><path d="M28.327 80.708c.048-1.056.912-2.352 5.617-3.409 3.121-.672 8.114-.72 15.364-.144 11.62.96 23.766 5.954 23.766 5.954l-.192 7.442-38.938 8.498c0 .048-5.28-16.757-5.617-18.34Z" fill="url(#e)"/><path d="M28.327 80.708c.048-1.056.912-2.352 5.617-3.409 3.121-.672 8.114-.72 15.364-.144 11.62.96 23.766 5.954 23.766 5.954l-.192 7.442-38.938 8.498c0 .048-5.28-16.757-5.617-18.34Z" fill="url(#f)"/><path d="M73.17 90.79 33.8 99.385c-.336-1.009-.624-2.065-.96-3.073-.672-2.16-1.344-4.321-1.968-6.338a540.4 540.4 0 0 1-2.113-6.865c-.192-.673-.624-1.68-.672-2.353.096-1.536 1.68-2.689 5.761-3.6 3.17-.673 8.21-.77 15.46-.145 2.353.192 4.801.528 7.346 1.056 3.89.769 7.826 1.873 11.571 3.121 1.296.432 2.497.864 3.6 1.248.385.144.721.288.961.384.288.145.144.049.48.193l-.096 7.777Zm-39.034 8.018 38.554-8.402.144-7.105-.192-.096c-.288-.096-.624-.24-.96-.385a137.624 137.624 0 0 0-3.553-1.248c-3.745-1.248-7.634-2.352-11.523-3.12a60.794 60.794 0 0 0-7.298-1.057c-7.202-.576-12.195-.528-15.316.144-1.728.384-3.552.816-4.897 2.017-.528.72-.576.912-.336 1.68.144.48.336 1.152.48 1.68.384 1.345.816 2.69 1.249 4.034.96 3.024 1.872 6.097 2.832 9.122.24.768.48 1.44.672 2.064l.145.672Z" fill="#FFA7A9"/><path d="M108.651 149.461s4.753-34.712-15.268-58.286c-4.513 1.296-20.357 4.801-20.597 5.041 21.846 23.814 3.697 57.903 3.697 57.903l17.909-11.955 14.259 7.297Z" fill="url(#g)"/><path opacity=".4" d="M52.861 128.768c1.489.528 4.37-.24 6.146-2.881 1.584-2.4 3.457-8.882 7.442-15.94 4.753-8.45 26.454-21.461 26.454-21.461l7.394 12.819s-2.737 2.833-7.25 5.185c.432 5.858.72 12.435.336 18.197-.768 11.571-5.425 14.98-8.93 15.412-1.584.192-7.298-2.641-14.98-5.426-4.609-1.584-15.027-4.561-16.612-5.905Z" fill="#121214"/><path d="M23.574 115.229c-.672-1.201-1.489-4.417 2.929-8.834 2.928-2.929 9.026-7.442 17.428-11.956 13.395-7.153 29.575-11.57 29.575-11.57l5.858 11.763-36.73 36.729c.049.048-17.572-14.644-19.06-16.132Z" fill="url(#h)"/><path d="M42.683 131.697c-2.017-1.681-1.009-.864-2.93-2.449a358.526 358.526 0 0 1-6.24-5.233 507.54 507.54 0 0 1-7.73-6.578c-.529-.432-1.97-1.584-2.401-2.16-1.248-2.257-.672-5.426 2.977-9.075 3.36-3.36 9.842-7.921 17.476-12.002 3.937-2.113 8.354-4.082 13.06-5.954 3.936-1.584 7.921-2.929 11.666-4.13 1.296-.431 2.497-.767 3.553-1.103.384-.096.72-.192.96-.288.336-.096.144-.048.528-.144l6.05 12.099-36.97 37.017Zm0-.624 36.44-36.441-5.713-11.427-.144.048c-.288.096-.624.192-.96.288-1.056.288-2.257.672-3.553 1.104a200.808 200.808 0 0 0-11.619 4.13c-4.705 1.872-9.074 3.84-13.011 5.953-7.634 4.033-14.067 8.546-17.428 11.859-1.825 1.872-3.89 4.465-3.361 7.297.048.288.24.913.432 1.201.192.288 1.152 1.008 1.344 1.2.672.576 1.489 1.296 2.209 1.872a534.19 534.19 0 0 0 5.857 4.946c.24.192.432.384.672.528 2.017 1.68 4.13 3.457 6.242 5.185.72.624 1.392 1.2 2.016 1.681l.577.576Z" fill="#FFA7A9"/><path d="M50.029 129.872c1.488.528 4.369-.24 6.145-2.88 1.584-2.401 3.457-8.883 7.442-15.94 4.753-8.45 13.587-18.821 13.587-18.821l12.003 4.321s2.113 17.716 1.297 29.287c-.769 11.571-5.426 14.98-8.93 15.412-1.585.192-7.298-2.64-14.98-5.425-4.562-1.633-14.98-4.609-16.565-5.954Z" fill="url(#i)"/><path d="M28.135 80.66c2.977 4.705 10.755 5.666 18.869 5.282 9.698-.48 27.655-2.257 27.655-2.257l2.736 12.483s-13.875 11.187-24.102 16.66c-10.226 5.474-14.787 6.722-17.044 3.937-1.008-1.248-3.313-7.538-5.041-15.556-1.056-4.705-3.361-18.484-3.073-20.549Z" fill="url(#j)"/><path opacity=".308" d="M77.155 95.208c-9.218 7.25-18.676 14.308-29.287 19.349-1.632.768-3.553 1.584-5.281 2.16-1.585.481-3.457.913-5.042.288-1.632-.624-2.16-1.968-2.784-3.456-.24-.577-.48-1.153-.672-1.729-.72-1.968-1.297-4.225-1.873-6.241 2.497 2.16 5.09 1.008 6.866-.144 2.064-1.393 4.849-3.889 8.066-6.386 3.169-2.449 7.154-4.513 9.89-5.617 3.841-1.585 10.707-4.754 18.1-8.163l2.017 9.939Z" fill="url(#k)"/><path d="m76.243 87.718-8.162 4.657 9.794-1.632-10.274 8.93 12.483-6.626-13.395 15.364 15.124-13.54-2.881 8.595 4.945-6.674-5.377 19.685 8.018-19.445c.096-.048-10.275-9.314-10.275-9.314Z" fill="#80000D"/><path d="m73.843 84.02-.529.049c-1.104.096-2.352.24-3.697.336-3.84.336-7.682.672-11.33 1.008-.288.048-.625.048-.913.096a360.47 360.47 0 0 1-10.322.72c-4.417.144-9.026.24-13.252-1.2-1.968-.672-4.225-1.969-5.473-3.745-.336-.768-.144-.432-.096-1.104l.288.48c2.593 4.129 8.882 5.57 18.485 5.09 2.688-.145 6.193-.385 10.274-.721.288 0 .625-.048.913-.096 3.6-.288 7.49-.624 11.33-1.008 1.345-.144 2.593-.24 3.697-.337l.48-.047.048.144.097.336Z" fill="#FFA7A9"/><path opacity=".311" d="M75.715 134.625c-1.44 1.345-3.265 2.497-5.281 2.641-2.977-1.152-1.68-.672-3.937-1.489-4.514-1.632-14.932-4.609-16.517-5.953 1.489.528 4.37-.24 6.146-2.881 1.584-2.4 3.457-8.882 7.442-15.94 2.785-4.897 6.145-9.458 9.602-13.923.912-1.2 1.873-2.4 2.833-3.553.384-.432.72-.96 1.152-1.344l11.763 4.225v.048c-1.968 8.978-4.32 17.86-7.394 26.502-.96 2.737-1.776 4.561-2.88 7.106-.144.288-.769 1.632-1.009 2.065-.288.48-.576.912-.864 1.344l-1.056 1.152Z" fill="url(#l)"/><path d="M23.574 115.229c1.488 1.488 5.233 2.16 8.834 0 3.217-1.921 8.978-8.547 17.62-14.692 10.275-7.346 26.455-14.692 26.455-14.692l11.763 11.763S80.9 119.646 73.554 132.85s-14.691 14.692-19.108 13.203c-1.969-.672-9.65-6.577-16.325-13.107-6.673-6.578-13.395-15.268-14.547-17.716Z" fill="url(#m)"/><path d="M75.235 86.71c-1.44.672-.624.288-2.4 1.152a226.07 226.07 0 0 0-8.931 4.56 219.288 219.288 0 0 0-7.058 3.986c-2.496 1.488-4.753 2.929-6.673 4.321-4.514 3.169-8.595 6.866-12.628 10.563-2.64 2.4-3.889 3.456-4.993 4.129-2.208 1.248-5.713 2.112-8.066.72-.672-.336-1.056-.768-1.104-.816l.384-.288c1.632 1.632 5.425 1.824 8.546-.048 1.056-.625 2.305-1.681 4.945-4.082 2.785-2.496 5.522-5.089 8.45-7.393 2.017-1.633 2.449-1.921 4.225-3.217a103.07 103.07 0 0 1 6.722-4.37c2.209-1.344 4.561-2.64 7.058-3.984a226.141 226.141 0 0 1 8.93-4.561c1.729-.865.96-.48 2.353-1.105l.24.433Z" fill="#FFA7A9"/><path d="m108.939 149.989-14.547-7.394-17.429 12.051-.48-.48c7.682-5.425 1.44-1.392 17.86-12.387l14.02 7.154c.096-.72.048-.336.096-1.152.096-1.345.192-2.881.288-4.61.144-4.897-.048-10.178-.768-15.603-1.536-10.707-4.513-21.51-10.755-30.536.384-.288.192-.144.624-.48l.192.24c6.098 9.506 9.027 19.541 10.659 30.631.72 5.474.96 10.755.768 15.7a62.137 62.137 0 0 1-.288 4.658c-.048.48-.096.912-.144 1.248-.048.24-.048.384-.048.432l-.048.528Z" fill="url(#n)"/><path opacity=".25" d="M82.389 102.745c-5.33-4.417-10.755-11.81-12.147-16.468-1.393-4.657 1.776-4.849 7.057-.432 5.33 4.417 10.755 11.811 12.147 16.468 1.44 4.657-1.728 4.849-7.057.432Z" fill="#121214"/><path d="M150.614 107.499s-34.713 4.753-58.287-15.268c1.296-4.513 4.801-20.357 5.041-20.597 23.814 21.845 57.903 3.697 57.903 3.697l-11.955 17.908 7.298 14.26Z" fill="url(#o)"/><path opacity=".4" d="M130.017 51.613c.528 1.488-.241 4.369-2.881 6.145-2.401 1.585-8.882 3.457-15.94 7.442-8.45 4.753-20.07 24.87-20.07 24.87l10.9 8.93s3.888-2.784 6.337-7.201c5.617.384 12.291.624 17.621.288 11.57-.768 14.979-5.425 15.411-8.93.192-1.585-2.64-7.298-5.425-14.98-1.632-4.561-4.609-14.98-5.953-16.564Z" fill="#121214"/><path d="m151.142 107.787-7.394-14.548 12.051-17.428-.48-.48c-5.426 7.681-1.393 1.44-12.387 17.86l7.153 14.02c-.72.096-.336.048-1.152.096-1.344.096-2.881.192-4.609.288-4.897.144-10.178-.048-15.604-.769-10.707-1.536-21.509-4.513-30.535-10.754-.289.384-.145.192-.48.624l.24.192c9.506 6.097 19.54 9.026 30.631 10.659 5.473.72 10.755.96 15.7.768a62.108 62.108 0 0 0 4.657-.288c.48-.048.912-.096 1.249-.144.24-.048.384-.048.432-.048l.528-.048Z" fill="url(#p)"/><path d="M116.381 22.47c-1.2-.672-4.417-1.489-8.834 2.928-2.929 2.93-7.442 9.027-11.955 17.429C88.438 56.222 84.02 72.402 84.02 72.402l11.763 5.858 36.729-36.73S117.82 23.91 116.38 22.47Z" fill="url(#q)"/><path d="M132.849 41.578c-1.68-2.016-.864-1.008-2.448-2.928a358.542 358.542 0 0 0-5.234-6.242 507.479 507.479 0 0 0-6.577-7.73c-.432-.528-1.585-1.969-2.161-2.4-2.256-1.249-5.473-.673-9.074 2.976-3.361 3.361-7.922 9.843-12.003 17.477-2.113 3.936-4.081 8.354-5.954 13.059-1.584 3.937-2.928 7.922-4.129 11.667-.432 1.296-.768 2.496-1.104 3.553-.096.384-.192.72-.288.96-.096.336-.048.144-.144.528l12.099 6.05 37.017-36.97Zm-.624-.048L95.784 77.971l-11.427-5.713.048-.144c.096-.288.192-.624.288-.96.288-1.057.672-2.257 1.105-3.553a200.4 200.4 0 0 1 4.129-11.62c1.872-4.704 3.84-9.073 5.953-13.01 4.081-7.586 8.546-14.02 11.907-17.38 1.872-1.825 4.465-3.89 7.298-3.362.288.048.912.24 1.2.433.288.192 1.008 1.152 1.2 1.344.577.672 1.297 1.488 1.873 2.208a534.056 534.056 0 0 1 4.945 5.858c.192.24.384.432.528.672 1.681 2.017 3.457 4.13 5.185 6.242.625.72 1.201 1.392 1.681 2.016l.528.528Z" fill="#FFA7A9"/><path d="M131.025 48.876c.528 1.488-.24 4.37-2.881 6.146-2.401 1.584-8.882 3.456-15.94 7.441-8.45 4.754-18.82 13.588-18.82 13.588l4.32 12.003s17.717 2.112 29.288 1.296c11.571-.768 14.98-5.425 15.412-8.93.192-1.585-2.641-7.298-5.426-14.98-1.632-4.561-4.609-14.98-5.953-16.564Z" fill="url(#r)"/><path d="M81.813 27.03c4.705 2.977 5.665 10.755 5.28 18.87-.48 9.698-2.256 27.654-2.256 27.654l12.483 2.737s11.187-13.876 16.661-24.102c5.473-10.227 6.721-14.788 3.937-17.044-1.249-1.009-7.538-3.313-15.556-5.042-4.706-1.056-18.485-3.409-20.55-3.072Z" fill="url(#s)"/><path opacity=".308" d="M96.36 76.003c7.25-9.219 14.308-18.677 19.349-29.288.768-1.632 1.584-3.553 2.16-5.28.481-1.585.913-3.458.289-5.042-.625-1.633-1.969-2.16-3.457-2.785-.576-.24-1.153-.48-1.729-.672-1.968-.72-4.225-1.296-6.241-1.872 2.16 2.496 1.008 5.089-.144 6.865-1.393 2.065-3.889 4.85-6.386 8.066-2.449 3.169-4.513 7.154-5.617 9.89-1.585 3.842-4.754 10.707-8.162 18.101l9.938 2.017Z" fill="url(#t)"/><path d="m88.87 75.139 4.657-8.162-1.632 9.794 8.93-10.274-6.626 12.483 15.364-13.395-13.539 15.123 8.594-2.88-6.673 4.993 19.684-5.378-19.445 8.018c-.096 0-9.314-10.322-9.314-10.322Z" fill="#80000D"/><path d="m85.125 72.69.048-.528c.096-1.104.24-2.353.336-3.697.337-3.841.673-7.682 1.009-11.33.048-.289.048-.625.096-.913.336-4.081.576-7.586.72-10.323.144-4.417.24-9.026-1.2-13.251-.673-1.969-1.969-4.225-3.745-5.473-.769-.337-.432-.144-1.105-.096l.48.288c4.13 2.592 5.57 8.882 5.09 18.484a371.228 371.228 0 0 1-.72 10.275c0 .288-.049.624-.097.912a579.21 579.21 0 0 1-1.008 11.33c-.144 1.345-.24 2.594-.336 3.698l-.048.48.144.048.336.096Z" fill="#FFA7A9"/><path opacity=".311" d="M135.778 74.563c1.344-1.44 2.497-3.265 2.641-5.282-1.153-2.977-.673-1.68-1.489-3.937-1.632-4.513-4.609-14.931-5.953-16.516.528 1.488-.24 4.37-2.881 6.146-2.401 1.584-8.882 3.457-15.94 7.442-4.897 2.784-9.458 6.145-13.923 9.602-1.2.912-2.401 1.872-3.553 2.833-.432.384-.96.72-1.345 1.152l4.225 11.763h.048c8.979-1.969 17.861-4.321 26.503-7.394 2.737-.96 4.561-1.776 7.106-2.88.288-.145 1.632-.769 2.064-1.009.48-.288.913-.576 1.345-.864l1.152-1.056Z" fill="url(#u)"/><path d="M116.381 22.47c1.488 1.488 2.161 5.233 0 8.834-1.92 3.217-8.546 8.978-14.692 17.62C94.344 59.2 86.998 75.38 86.998 75.38L98.76 87.142s22.037-7.346 35.241-14.692c13.203-7.346 14.691-14.692 13.203-19.109-.672-1.968-5.618-8.642-13.3-16.132-6.673-6.625-15.075-13.635-17.524-14.74Z" fill="url(#v)"/><path d="M87.862 74.082c.672-1.44.288-.624 1.152-2.4a226.139 226.139 0 0 1 4.561-8.93 219.171 219.171 0 0 1 3.985-7.058c1.489-2.497 2.929-4.753 4.321-6.674 3.169-4.513 6.866-8.594 10.563-12.627 2.401-2.64 3.457-3.889 4.129-4.993 1.248-2.209 2.113-5.714.72-8.066-.336-.672-.768-1.056-.816-1.104l-.288.384c1.632 1.632 1.824 5.425-.048 8.546-.624 1.056-1.68 2.304-4.081 4.945-2.497 2.785-5.089 5.521-7.394 8.45-1.632 2.017-1.92 2.449-3.217 4.225a103.283 103.283 0 0 0-4.369 6.722c-1.344 2.208-2.64 4.56-3.985 7.058a226.07 226.07 0 0 0-4.56 8.93c-.865 1.728-.481.96-1.105 2.352l.432.24Z" fill="#FFA7A9"/><path opacity=".25" d="M103.898 81.38c-4.417-5.329-11.81-10.754-16.468-12.147-4.657-1.392-4.85 1.777-.432 7.058 4.417 5.33 11.81 10.755 16.468 12.147 4.657 1.392 4.849-1.776.432-7.058Z" fill="#121214"/><path d="M69.858 82.34c.24-2.832 11.666-13.443 14.211-13.923 2.545-.432 23.094 17.957 22.326 21.317-.625 2.881-12.435 14.356-15.748 15.748-3.217 1.345-21.03-20.309-20.79-23.141Z" fill="url(#w)"/></g><defs><linearGradient id="b" x1="-10.306" y1="181.693" x2="181.692" y2="-10.306" gradientUnits="userSpaceOnUse"><stop stop-color="#FF001B"/><stop offset=".16" stop-color="#FF001B"/><stop offset=".327" stop-color="#63000A"/><stop offset=".65" stop-color="#67000B"/><stop offset=".831" stop-color="#FF001B"/><stop offset="1" stop-color="#FF001B"/></linearGradient><linearGradient id="c" x1="90.184" y1="29.004" x2="80.978" y2="71.228" gradientUnits="userSpaceOnUse"><stop stop-color="#580009"/><stop offset=".135" stop-color="#A40011"/><stop offset=".263" stop-color="#D80016"/><stop offset=".562" stop-color="#AA0012"/><stop offset=".991" stop-color="#5B0009"/></linearGradient><linearGradient id="d" x1="94.974" y1="51.863" x2="77.907" y2="48.573" gradientUnits="userSpaceOnUse"><stop/><stop offset=".265" stop-color="#525252"/><stop offset=".527" stop-color="#9C9C9C"/><stop offset=".743" stop-color="#D2D2D2"/><stop offset=".903" stop-color="#F3F3F3"/><stop offset=".991" stop-color="#fff"/></linearGradient><linearGradient id="e" x1="30.143" y1="89.045" x2="72.366" y2="79.84" gradientUnits="userSpaceOnUse"><stop stop-color="#580009"/><stop offset=".135" stop-color="#A40011"/><stop offset=".263" stop-color="#D80016"/><stop offset=".562" stop-color="#AA0012"/><stop offset=".991" stop-color="#5B0009"/></linearGradient><linearGradient id="f" x1="52.797" y1="93.802" x2="49.54" y2="75.302" gradientUnits="userSpaceOnUse"><stop/><stop offset=".443" stop-color="#787878"/><stop offset=".822" stop-color="#D9D9D9"/><stop offset=".991" stop-color="#fff"/></linearGradient><linearGradient id="g" x1="104.095" y1="162.528" x2="74.663" y2="97.13" gradientUnits="userSpaceOnUse"><stop stop-color="#D50016"/><stop offset=".342" stop-color="#FF001B"/><stop offset=".536" stop-color="#C70015"/><stop offset=".729" stop-color="#80000D"/></linearGradient><linearGradient id="h" x1="30.939" y1="122.577" x2="72.062" y2="81.454" gradientUnits="userSpaceOnUse"><stop stop-color="#580009"/><stop offset=".135" stop-color="#A40011"/><stop offset=".263" stop-color="#E60018"/><stop offset=".5" stop-color="#BD0014"/></linearGradient><linearGradient id="i" x1="67.775" y1="136.625" x2="83.018" y2="94.314" gradientUnits="userSpaceOnUse"><stop stop-color="#93000F"/><stop offset=".111" stop-color="#D50016"/><stop offset=".226" stop-color="#FF3B46"/><stop offset=".361" stop-color="#E10017"/><stop offset=".551" stop-color="#990010"/><stop offset=".782" stop-color="#67000B"/></linearGradient><linearGradient id="j" x1="30.959" y1="100.153" x2="76.119" y2="90.308" gradientUnits="userSpaceOnUse"><stop stop-color="#93000F"/><stop offset=".111" stop-color="#D50016"/><stop offset=".226" stop-color="#FF7780"/><stop offset=".361" stop-color="#FF001B"/><stop offset=".551" stop-color="#AD0012"/><stop offset=".865" stop-color="#70000C"/></linearGradient><linearGradient id="k" x1="34.816" y1="111.537" x2="77.096" y2="93.161" gradientUnits="userSpaceOnUse"><stop offset=".139"/><stop offset=".389" stop-color="#464646"/><stop offset=".835"/></linearGradient><linearGradient id="l" x1="62.658" y1="134.185" x2="79.335" y2="92.981" gradientUnits="userSpaceOnUse"><stop offset=".126"/><stop offset=".498" stop-color="#464646"/><stop offset=".844"/></linearGradient><linearGradient id="m" x1="39.498" y1="134.327" x2="82.216" y2="91.609" gradientUnits="userSpaceOnUse"><stop stop-color="#93000F"/><stop offset=".111" stop-color="#D50016"/><stop offset=".226" stop-color="#FF7780"/><stop offset=".361" stop-color="#FF001B"/><stop offset=".573" stop-color="#C70015"/><stop offset=".857" stop-color="#6C000B"/></linearGradient><linearGradient id="n" x1="108.143" y1="121.87" x2="70.213" y2="133.143" gradientUnits="userSpaceOnUse"><stop stop-color="#80000D"/><stop offset="1" stop-color="#C70015"/></linearGradient><linearGradient id="o" x1="163.666" y1="102.955" x2="98.268" y2="73.524" gradientUnits="userSpaceOnUse"><stop stop-color="#D50016"/><stop offset=".342" stop-color="#FF001B"/><stop offset=".536" stop-color="#C70015"/><stop offset=".729" stop-color="#80000D"/></linearGradient><linearGradient id="p" x1="123.009" y1="107.003" x2="134.281" y2="69.073" gradientUnits="userSpaceOnUse"><stop stop-color="#80000D"/><stop offset="1" stop-color="#C70015"/></linearGradient><linearGradient id="q" x1="123.716" y1="29.8" x2="82.593" y2="70.923" gradientUnits="userSpaceOnUse"><stop stop-color="#580009"/><stop offset=".135" stop-color="#A40011"/><stop offset=".263" stop-color="#E60018"/><stop offset=".5" stop-color="#BD0014"/></linearGradient><linearGradient id="r" x1="137.764" y1="66.636" x2="95.454" y2="81.878" gradientUnits="userSpaceOnUse"><stop stop-color="#93000F"/><stop offset=".111" stop-color="#D50016"/><stop offset=".226" stop-color="#FF3B46"/><stop offset=".361" stop-color="#E10017"/><stop offset=".551" stop-color="#990010"/><stop offset=".782" stop-color="#67000B"/></linearGradient><linearGradient id="s" x1="101.292" y1="29.82" x2="91.447" y2="74.981" gradientUnits="userSpaceOnUse"><stop stop-color="#93000F"/><stop offset=".111" stop-color="#D50016"/><stop offset=".226" stop-color="#FF7780"/><stop offset=".361" stop-color="#FF001B"/><stop offset=".551" stop-color="#AD0012"/><stop offset=".865" stop-color="#70000C"/></linearGradient><linearGradient id="t" x1="112.675" y1="33.678" x2="94.298" y2="75.958" gradientUnits="userSpaceOnUse"><stop offset=".139"/><stop offset=".389" stop-color="#464646"/><stop offset=".835"/></linearGradient><linearGradient id="u" x1="135.323" y1="61.52" x2="94.118" y2="78.197" gradientUnits="userSpaceOnUse"><stop offset=".126"/><stop offset=".498" stop-color="#464646"/><stop offset=".844"/></linearGradient><linearGradient id="v" x1="135.307" y1="38.518" x2="92.748" y2="81.077" gradientUnits="userSpaceOnUse"><stop stop-color="#93000F"/><stop offset=".111" stop-color="#D50016"/><stop offset=".226" stop-color="#FF7780"/><stop offset=".361" stop-color="#FF001B"/><stop offset=".573" stop-color="#C70015"/><stop offset=".857" stop-color="#6C000B"/></linearGradient><linearGradient id="w" x1="75.874" y1="74.984" x2="99.226" y2="98.115" gradientUnits="userSpaceOnUse"><stop offset=".011" stop-color="#80000D"/><stop offset=".16" stop-color="#B80013"/><stop offset=".303" stop-color="#E10018"/><stop offset=".5" stop-color="#FF5D61"/><stop offset=".694" stop-color="#E50018"/><stop offset=".853" stop-color="#B60013"/><stop offset="1" stop-color="#80000D"/></linearGradient><clipPath id="a"><path fill="#fff" d="M0 0h192v192H0z"/></clipPath></defs></svg>