<svg width="20" height="21" viewBox="0 0 20 21" fill="none" xmlns="http://www.w3.org/2000/svg">
<path d="M3.016 2.50195C2.62481 2.50156 2.23738 2.57832 1.8759 2.72784C1.51441 2.87736 1.18596 3.0967 0.909352 3.37331C0.63274 3.64992 0.413397 3.97837 0.263879 4.33986C0.11436 4.70134 0.0376012 5.08877 0.0379959 5.47995C0.0379959 7.71295 3.016 11.01 3.016 11.01C3.016 11.01 5.994 7.71295 5.994 5.47995C5.99439 5.08877 5.91763 4.70134 5.76811 4.33986C5.61859 3.97837 5.39925 3.64992 5.12264 3.37331C4.84603 3.0967 4.51758 2.87736 4.15609 2.72784C3.79461 2.57832 3.40718 2.50156 3.016 2.50195ZM3.016 6.54295C2.80575 6.54295 2.60023 6.48061 2.42542 6.36381C2.25062 6.247 2.11437 6.08099 2.03391 5.88675C1.95346 5.69251 1.93241 5.47878 1.97342 5.27257C2.01444 5.06637 2.11568 4.87696 2.26434 4.7283C2.413 4.57964 2.60241 4.4784 2.80861 4.43738C3.01482 4.39636 3.22855 4.41742 3.42279 4.49787C3.61703 4.57833 3.78304 4.71457 3.89985 4.88938C4.01665 5.06419 4.079 5.26971 4.079 5.47995C4.07873 5.7618 3.96665 6.03202 3.76736 6.23132C3.56806 6.43061 3.29784 6.54269 3.016 6.54295Z" fill="#121214"/>
<path d="M18.024 9.29605V4.99605C18.017 4.5445 17.9484 4.09603 17.82 3.66305C17.4919 2.51837 16.7657 1.52853 15.7723 0.87191C14.7789 0.21529 13.5837 -0.0649244 12.402 0.081764C11.2203 0.228452 10.1298 0.792397 9.32713 1.67197C8.52444 2.55154 8.0623 3.68889 8.02401 4.87905V5.12705L8.01401 5.99705V15.949H8.01001V15.99C8.01001 16.5205 7.7993 17.0292 7.42422 17.4043C7.04915 17.7793 6.54044 17.99 6.01001 17.99C5.47958 17.99 4.97087 17.7793 4.5958 17.4043C4.22072 17.0292 4.01001 16.5205 4.01001 15.99C4.01001 15.978 4.01301 15.966 4.01401 15.953H4.01001V14.01H2.01001V16.01H2.01201C2.01267 17.0704 2.43453 18.087 3.18476 18.8363C3.935 19.5856 4.95217 20.0062 6.01251 20.0055C7.07284 20.0049 8.08949 19.583 8.83879 18.8328C9.58809 18.0826 10.0087 17.0654 10.008 16.005H10.01V15.023H10.015V6.99705L10.025 5.12705V4.88005C10.0535 4.09281 10.3904 3.34834 10.963 2.80733C11.5356 2.26631 12.298 1.97213 13.0856 1.98827C13.8731 2.00442 14.6228 2.3296 15.1727 2.89363C15.7227 3.45765 16.0288 4.2153 16.025 5.00305V9.27805C15.6421 9.49473 15.3413 9.8317 15.1694 10.2367C14.9974 10.6417 14.9639 11.0921 15.074 11.5181C15.1842 11.9441 15.4317 12.3219 15.7784 12.5928C16.1251 12.8638 16.5515 13.0128 16.9914 13.0168C17.4314 13.0207 17.8604 12.8794 18.2119 12.6147C18.5634 12.3501 18.8177 11.9768 18.9355 11.5529C19.0533 11.1289 19.0279 10.678 18.8633 10.27C18.6986 9.86191 18.404 9.51958 18.025 9.29605H18.024Z" fill="#121214"/>
</svg>
