<svg width="304" height="158" fill="none" xmlns="http://www.w3.org/2000/svg"><path fill-rule="evenodd" clip-rule="evenodd" d="M215.254 378.819c-21.802-14.299-41.174-30.137-59.584-48.611-17.81-17.873-29.05-39.903-46.644-57.989C74.187 236.405-5.377 221.188 1.396 171.617c6.427-47.039 84.507-37.512 128.808-54.408 25.958-9.9 55.083-9.033 78.158-24.526C245.246 67.917 259.538-9.578 302.51 1.516c43.602 11.256 5.456 99.589 41.761 126.254 44.575 32.739 143.164-29.296 161.418 22.975 17.839 51.084-87.876 63.932-114.637 110.985-16.15 28.395 10.492 66.642-3.245 96.282-15.192 32.777-40.154 70.303-75.963 74.621-37.228 4.489-65.233-33.25-96.59-53.814Z" fill="#373737"/></svg>