<svg width="45" height="45" fill="none" xmlns="http://www.w3.org/2000/svg"><circle cx="22.5" cy="22.5" r="22.5" fill="#037E8C"/><path d="M32.803 12.979H12.197A2.2 2.2 0 0 0 10 15.176v14.648a2.2 2.2 0 0 0 2.197 2.198h20.606A2.2 2.2 0 0 0 35 29.824V15.176a2.2 2.2 0 0 0-2.197-2.197Zm-.304 1.464-9.952 9.953-10.04-9.953H32.5ZM11.465 29.521V15.472l7.055 6.994-7.055 7.055Zm1.036 1.036 7.059-7.06 2.473 2.453a.732.732 0 0 0 1.034-.002l2.412-2.412 7.02 7.02H12.501Zm21.034-1.036-7.02-7.021 7.02-7.02v14.04Z" fill="#fff"/></svg>