<svg width="20" height="21" fill="none" xmlns="http://www.w3.org/2000/svg"><path d="M3.016 2.502A2.975 2.975 0 0 0 .038 5.48c0 2.233 2.978 5.53 2.978 5.53s2.978-3.297 2.978-5.53a2.975 2.975 0 0 0-2.978-2.978Zm0 4.041a1.063 1.063 0 1 1 0-2.126 1.063 1.063 0 0 1 0 2.126Zm15.008 2.753v-4.3a4.959 4.959 0 0 0-.204-1.333A4.996 4.996 0 0 0 8.024 4.88v.248l-.01.87v9.952H8.01v.041a2 2 0 1 1-4 0c0-.012.003-.024.004-.037H4.01V14.01h-2v2h.002a3.998 3.998 0 1 0 7.996-.005h.002v-.982h.005V6.997l.01-1.87V4.88a3 3 0 0 1 6 .123v4.275a1.999 1.999 0 1 0 2 .018h-.001Z" fill="#121214"/></svg>